<?xml version="1.0" standalone="no"?>
<!DOCTYPE svg PUBLIC "-//W3C//DTD SVG 20010904//EN"
 "http://www.w3.org/TR/2001/REC-SVG-20010904/DTD/svg10.dtd">
<svg version="1.0" xmlns="http://www.w3.org/2000/svg"
 width="512.000000pt" height="512.000000pt" viewBox="0 0 512.000000 512.000000"
 preserveAspectRatio="xMidYMid meet">
<metadata>
Created by potrace 1.14, written by Peter Selinger 2001-2017
</metadata>
<g transform="translate(0.000000,512.000000) scale(0.100000,-0.100000)"
fill="#000000" stroke="none">
<path d="M1043 4786 c-13 -6 -23 -14 -23 -18 0 -5 -6 -8 -12 -8 -19 0 -61 -41
-78 -75 -8 -16 -22 -42 -32 -57 -17 -25 -18 -125 -18 -2087 0 -1367 3 -2061
10 -2061 6 0 10 -7 10 -15 0 -31 94 -125 125 -125 8 0 15 -4 15 -10 0 -7 510
-10 1510 -10 831 0 1510 3 1510 8 0 4 17 15 38 24 46 20 102 70 102 92 0 9 3
16 8 16 31 0 32 45 32 1640 l0 1585 -558 558 -558 557 -1029 -1 c-735 -1
-1036 -5 -1052 -13z m1237 -1906 l0 -320 180 0 180 0 0 -400 0 -400 120 0 120
0 0 260 0 260 460 0 460 0 0 -600 0 -600 -460 0 -460 0 0 300 0 300 -160 0
-160 0 0 400 0 400 -140 0 -140 0 0 -240 0 -240 -480 0 -480 0 0 600 0 600
480 0 480 0 0 -320z"/>
<path d="M1440 2600 l0 -480 360 0 360 0 0 480 0 480 -360 0 -360 0 0 -480z"/>
<path d="M3000 1680 l0 -480 340 0 340 0 0 480 0 480 -340 0 -340 0 0 -480z"/>
</g>
</svg>
